PathFileType	4	(X/Y/Z)	Walk1.trc
DataRate	CameraRate	NumFrames	NumMarkers	Units	OrigDataRate	OrigDataStartFrame	OrigNumFrames
200.000000	200.000000	9	59	mm	200.000000	328	584
Frame#	Times		LFHD		RFHD		LBHD		RBHD		C7		T10		CLAV		STRN		RBack		LASI		RACR1		RUA1		RElbow		RFA1		RWRR		RWRU		RCAR		LACR1		LUA1		LElbow		LFA1		LWRU		LCAR		RTH1		RTH3		RTB1		RTB3		RTB4		LTH3		LTH2		LTH4		LLFC		LTB2		LTB4		LToe		RTH2		LMMAL		RTH4		LTH1		LTB1		RTB2		LCAL		LMT1		LTB3		LMT5		RElbowM		LWRR		LLMAL		RLFC		RPSI		LPSI		LElbowM		RASI		RMT1		RToe		RCAL		RMMAL		RLMAL		RMT5
			X1	Y1	Z1	X2	Y2	Z2	X3	Y3	Z3	X4	Y4	Z4	X5	Y5	Z5	X6	Y6	Z6	X7	Y7	Z7	X8	Y8	Z8	X9	Y9	Z9	X10	Y10	Z10	X11	Y11	Z11	X12	Y12	Z12	X13	Y13	Z13	X14	Y14	Z14	X15	Y15	Z15	X16	Y16	Z16	X17	Y17	Z17	X18	Y18	Z18	X19	Y19	Z19	X20	Y20	Z20	X21	Y21	Z21	X22	Y22	Z22	X23	Y23	Z23	X24	Y24	Z24	X25	Y25	Z25	X26	Y26	Z26	X27	Y27	Z27	X28	Y28	Z28	X29	Y29	Z29	X30	Y30	Z30	X31	Y31	Z31	X32	Y32	Z32	X33	Y33	Z33	X34	Y34	Z34	X35	Y35	Z35	X36	Y36	Z36	X37	Y37	Z37	X38	Y38	Z38	X39	Y39	Z39	X40	Y40	Z40	X41	Y41	Z41	X42	Y42	Z42	X43	Y43	Z43	X44	Y44	Z44	X45	Y45	Z45	X46	Y46	Z46	X47	Y47	Z47	X48	Y48	Z48	X49	Y49	Z49	X50	Y50	Z50	X51	Y51	Z51	X52	Y52	Z52	X53	Y53	Z53	X54	Y54	Z54	X55	Y55	Z55	X56	Y56	Z56	X57	Y57	Z57	X58	Y58	Z58	X59	Y59	Z59

328	1.64	-462.22	1409.3	-18.891	-472.74	1396.3	76.558	-590.69	1336.2	-52.137	-603.92	1326.8	80.064	-637.54	1248.9	17.335	-727.95	1051.2	26.645	-497.21	1162	8.775	-447.17	1054.4	11.165	-681.01	1124.1	136.27	-528.07	797.74	-153.16	-558.97	1187.5	192.74	-526.38	1045.5	269.5	-509.2	921.4	304.47	-412.09	832.92	289.06	-365.24	753.42	237.58	-388.16	734.36	303.15	-324.87	704.3	282.48	-588.58	1194.9	-173.54	-607.36	1039.8	-253.96	-659.96	933.1	-273.4	-626.98	836.19	-322.06	-661.51	733.59	-356.65	-631.79	679.33	-368.53	-612.11	616.93	211.78	-659.01	458.74	157.73	-698.83	266.65	79.353	-781.36	118.81	49.393	-743.48	193.26	64.159	-523.9	468.22	-155.71	-497.24	571.97	-159.76	-545.12	548.14	-186.43	-474.88	392.74	-116.17	-419.7	223.32	-105.3	-397.79	230.58	-47.625	-223.93	98.695	-51.194	-581.76	527.86	168.33	-374.91	86.333	-0.72724	-637.16	538.84	188.94	-567.5	628.59	-207.75	-419.04	315.77	-51.032	-774.57	201.23	116.48	-424.98	34.337	-29.888	-265.79	84.346	-22.667	-371.3	151.93	-45.827	-299.49	47.245	-96.62	-560.81	875.67	240.83	-613.95	720.1	-318.12	-393.78	62.971	-77.024	-707.94	380.27	135.02	-776.43	833.01	57.824	-780.22	826.18	-45.7	-680.37	908.92	-205.02	-516.29	800.5	175.75	-754.57	25.794	1.4463	-698.13	26.741	32.782	-913	67.679	38.834	-836.99	86.78	-0.18563	-849.19	73.746	83.027	-775.09	17.081	95.033
329	1.645	-456.82	1408.8	-19.293	-467.37	1395.8	76.153	-585.26	1335.7	-52.643	-598.52	1326.2	79.55	-632.16	1248.3	16.56	-722.35	1050.6	25.944	-491.69	1161.6	8.1605	-441.55	1053.9	10.626	-675.72	1123.6	135.49	-521.92	797.03	-153.25	-553.74	1187	192.09	-521.06	1045	268.91	-504.28	920.91	303.98	-407.3	832.29	288.71	-360.46	752.76	237.35	-383.49	733.72	302.89	-320.19	703.65	282.33	-583	1194.3	-174.26	-601.88	1039.1	-254.68	-654.31	932.42	-274.08	-621.51	835.55	-322.92	-656.29	733.06	-357.6	-626.69	678.81	-369.62	-606.36	616.59	211.93	-653.8	458.43	158.18	-695.38	266.27	79.909	-779.84	119.5	49.901	-740.94	193.46	64.684	-517.15	468.11	-155.21	-490.58	571.88	-159.42	-538.43	547.98	-186.04	-468.44	392.47	-115.59	-414.89	222.29	-104.23	-393.4	229.32	-46.356	-220.65	93.863	-48.471	-576.33	527.32	168.6	-372.58	84.711	0.60419	-631.69	538.49	189.25	-560.86	628.39	-207.52	-413.71	314.71	-49.959	-771.95	201.85	116.99	-423.21	34.143	-29.219	-263.33	80.565	-20.374	-367.72	150.45	-44.333	-297.17	44.49	-94.921	-555.95	875.19	240.37	-608.73	719.42	-319.14	-391.13	61.962	-75.913	-703.17	380.13	135.5	-770.59	832.4	57.236	-774.09	825.48	-46.209	-674.62	908.2	-205.71	-510.89	800.43	176.07	-754.47	25.979	1.5687	-698.14	26.701	32.648	-912.09	70.211	39.482	-835.95	88.268	0.37132	-848.19	75.221	83.611	-774.96	17.061	95.106
330	1.65	-451.41	1408.5	-19.716	-461.98	1395.4	75.725	-579.79	1335.3	-53.176	-593.09	1325.6	79.007	-626.74	1247.8	15.754	-716.72	1050	25.235	-486.13	1161.1	7.5114	-435.9	1053.5	10.022	-670.41	1123.1	134.67	-515.77	796.4	-153.34	-548.47	1186.5	191.41	-515.78	1044.6	268.3	-499.41	920.46	303.47	-402.58	831.7	288.36	-355.76	752.1	237.13	-378.92	733.1	302.64	-315.63	702.98	282.21	-577.38	1193.6	-175.02	-596.31	1038.5	-255.42	-648.58	931.76	-274.78	-615.95	834.94	-323.76	-650.96	732.55	-358.54	-621.47	678.31	-370.69	-600.53	616.29	212.08	-648.49	458.17	158.65	-691.82	265.92	80.49	-778.22	120.26	50.448	-738.3	193.7	65.239	-510.31	468.15	-154.72	-483.82	571.93	-159.06	-531.64	547.97	-185.65	-461.91	392.34	-115.07	-410.13	221.36	-103.25	-389.05	228.14	-45.179	-217.55	88.835	-45.9	-570.81	526.85	168.89	-370.39	83.158	1.8207	-626.15	538.17	189.57	-554.09	628.34	-207.28	-408.37	313.73	-48.967	-769.21	202.52	117.53	-421.65	34.113	-28.651	-261.04	76.675	-18.232	-364.25	149.03	-42.947	-295.11	41.726	-93.4	-551.13	874.79	239.86	-603.4	718.77	-320.14	-388.64	61.048	-74.919	-698.27	380.01	136.02	-764.7	831.81	56.71	-767.94	824.82	-46.664	-668.8	907.5	-206.41	-505.4	800.4	176.31	-754.36	26.185	1.7025	-698.16	26.661	32.504	-911.06	72.883	40.167	-834.8	89.839	0.97183	-847.1	76.784	84.234	-774.81	17.04	95.183
331	1.655	-445.97	1408.2	-20.158	-456.58	1395	75.275	-574.3	1334.9	-53.736	-587.64	1325.2	78.439	-621.28	1247.4	14.922	-711.05	1049.5	24.523	-480.54	1160.8	6.832	-430.22	1053.2	9.358	-665.06	1122.6	133.84	-509.61	795.83	-153.44	-543.17	1186.1	190.71	-510.54	1044.2	267.66	-494.6	920.07	302.94	-397.93	831.12	288.01	-351.15	751.44	236.93	-374.47	732.5	302.4	-311.18	702.32	282.12	-571.71	1193	-175.81	-590.67	1037.9	-256.17	-642.77	931.14	-275.48	-610.3	834.35	-324.6	-645.53	732.05	-359.45	-616.14	677.83	-371.71	-594.62	616.05	212.23	-643.07	457.94	159.13	-688.14	265.6	81.098	-776.49	121.1	51.032	-735.54	193.99	65.824	-503.4	468.33	-154.26	-476.96	572.13	-158.67	-524.74	548.12	-185.26	-455.31	392.36	-114.62	-405.38	220.54	-102.38	-384.73	227.05	-44.114	-214.62	83.699	-43.508	-565.2	526.43	169.17	-368.29	81.705	2.903	-620.51	537.9	189.89	-547.2	628.47	-207.03	-403.03	312.85	-48.074	-766.36	203.26	118.1	-420.24	34.244	-28.193	-258.89	72.746	-16.266	-360.86	147.69	-41.694	-293.26	39.007	-92.079	-546.35	874.46	239.31	-597.97	718.14	-321.11	-386.27	60.24	-74.06	-693.23	379.91	136.56	-758.77	831.26	56.254	-761.79	824.22	-47.062	-662.9	906.84	-207.11	-499.82	800.41	176.44	-754.23	26.414	1.847	-698.19	26.622	32.354	-909.88	75.706	40.881	-833.53	91.496	1.6134	-845.91	78.441	84.891	-774.66	17.021	95.259
332	1.66	-440.52	1408	-20.619	-451.17	1394.7	74.806	-568.78	1334.7	-54.32	-582.17	1324.8	77.847	-615.77	1247	14.071	-705.37	1049.1	23.812	-474.92	1160.5	6.1267	-424.52	1052.9	8.6361	-659.67	1122.3	132.99	-503.45	795.34	-153.53	-537.82	1185.8	190	-505.35	1043.9	267.01	-489.85	919.73	302.4	-393.35	830.58	287.66	-346.63	750.79	236.74	-370.13	731.91	302.17	-306.84	701.64	282.06	-566.01	1192.5	-176.63	-584.94	1037.3	-256.91	-636.89	930.56	-276.18	-604.57	833.8	-325.41	-639.99	731.59	-360.32	-610.69	677.39	-372.7	-588.64	615.87	212.39	-637.54	457.77	159.62	-684.32	265.32	81.732	-774.64	122.01	51.653	-732.65	194.34	66.44	-496.44	468.65	-153.83	-470.06	572.48	-158.24	-517.78	548.44	-184.87	-448.64	392.54	-114.25	-400.66	219.84	-101.64	-380.45	226.08	-43.179	-211.86	78.539	-41.314	-559.5	526.08	169.46	-366.26	80.374	3.8397	-614.78	537.68	190.2	-540.2	628.76	-206.79	-397.67	312.07	-47.295	-763.37	204.07	118.7	-418.94	34.52	-27.848	-256.86	68.84	-14.494	-357.55	146.44	-40.596	-291.59	36.376	-90.974	-541.61	874.21	238.71	-592.43	717.56	-322.05	-383.99	59.54	-73.344	-688.03	379.84	137.12	-752.79	830.75	55.875	-755.64	823.68	-47.397	-656.93	906.23	-207.8	-494.14	800.45	176.46	-754.08	26.666	2.0014	-698.23	26.582	32.2	-908.54	78.69	41.611	-832.11	93.243	2.2935	-844.61	80.198	85.573	-774.5	17.009	95.33
333	1.665	-435.05	1407.9	-21.096	-445.74	1394.6	74.319	-563.23	1334.5	-54.924	-576.67	1324.5	77.233	-610.22	1246.8	13.207	-699.65	1048.8	23.11	-469.27	1160.3	5.4004	-418.78	1052.8	7.8606	-654.25	1122.1	132.14	-497.29	794.94	-153.63	-532.43	1185.6	189.27	-500.2	1043.6	266.34	-485.14	919.46	301.83	-388.84	830.07	287.31	-342.2	750.16	236.57	-365.9	731.34	301.95	-302.63	700.97	282.02	-560.25	1192	-177.48	-579.12	1036.8	-257.66	-630.92	930.03	-276.87	-598.74	833.31	-326.21	-634.35	731.17	-361.17	-605.12	676.99	-373.64	-582.58	615.74	212.53	-631.89	457.64	160.12	-680.34	265.08	82.396	-772.63	123.01	52.315	-729.61	194.75	67.092	-489.46	469.12	-153.46	-463.12	572.96	-157.78	-510.77	548.92	-184.49	-441.91	392.87	-113.96	-395.96	219.26	-101.05	-376.21	225.2	-42.387	-209.29	73.432	-39.327	-553.69	525.8	169.75	-364.32	79.174	4.6277	-608.96	537.52	190.51	-533.12	629.22	-206.56	-392.32	311.4	-46.641	-760.23	204.95	119.32	-417.75	34.918	-27.613	-254.97	65.011	-12.923	-354.33	145.3	-39.664	-290.09	33.868	-90.092	-536.92	874.05	238.07	-586.77	717.04	-322.95	-381.82	58.939	-72.77	-682.68	379.79	137.72	-746.76	830.29	55.582	-749.49	823.21	-47.667	-650.88	905.67	-208.48	-488.36	800.53	176.35	-753.89	26.945	2.165	-698.29	26.541	32.047	-907.01	81.845	42.347	-830.52	95.083	3.01	-843.18	82.062	86.276	-774.33	17.009	95.39
334	1.67	-429.56	1407.9	-21.589	-440.29	1394.5	73.816	-557.65	1334.4	-55.546	-571.15	1324.3	76.603	-604.61	1246.7	12.338	-693.92	1048.7	22.422	-463.58	1160.2	4.658	-413.02	1052.7	7.0358	-648.78	1122	131.29	-491.13	794.64	-153.73	-526.99	1185.5	188.53	-495.1	1043.4	265.65	-480.49	919.25	301.25	-384.4	829.58	286.97	-337.86	749.53	236.42	-361.79	730.79	301.73	-298.54	700.29	282.01	-554.46	1191.6	-178.34	-573.21	1036.4	-258.39	-624.88	929.58	-277.55	-592.82	832.88	-326.98	-628.59	730.8	-361.97	-599.44	676.64	-374.54	-576.45	615.69	212.68	-626.1	457.56	160.63	-676.2	264.88	83.093	-770.46	124.1	53.018	-726.4	195.22	67.782	-482.46	469.73	-153.14	-456.18	573.6	-157.28	-503.72	549.55	-184.14	-435.14	393.35	-113.76	-391.3	218.78	-100.6	-372.01	224.43	-41.742	-206.9	68.448	-37.547	-547.78	525.61	170.02	-362.45	78.109	5.2725	-603.03	537.42	190.81	-526	629.84	-206.35	-386.96	310.82	-46.12	-756.93	205.91	119.97	-416.65	35.41	-27.478	-253.22	61.305	-11.548	-351.2	144.24	-38.9	-288.75	31.512	-89.427	-532.26	873.98	237.38	-581.01	716.58	-323.81	-379.77	58.427	-72.327	-677.14	379.77	138.34	-740.7	829.88	55.38	-743.37	822.82	-47.868	-644.75	905.19	-209.14	-482.48	800.64	176.12	-753.66	27.253	2.3374	-698.34	26.497	31.898	-905.27	85.18	43.077	-828.73	97.017	3.7614	-841.61	84.038	86.992	-774.16	17.028	95.435
335	1.675	-424.05	1408.1	-22.097	-434.82	1394.6	73.299	-552.04	1334.4	-56.181	-565.6	1324.2	75.957	-598.96	1246.6	11.47	-688.16	1048.6	21.751	-457.86	1160.2	3.9048	-407.22	1052.7	6.167	-643.27	1122	130.45	-484.98	794.44	-153.83	-521.49	1185.4	187.79	-490.04	1043.3	264.96	-475.87	919.11	300.65	-380.03	829.14	286.64	-333.61	748.92	236.28	-357.8	730.27	301.53	-294.58	699.62	282.02	-548.61	1191.4	-179.21	-567.21	1036	-259.1	-618.75	929.2	-278.22	-586.8	832.52	-327.71	-622.71	730.48	-362.73	-593.63	676.35	-375.38	-570.24	615.71	212.81	-620.16	457.53	161.14	-671.86	264.73	83.829	-768.11	125.28	53.768	-723.01	195.75	68.519	-475.46	470.47	-152.89	-449.26	574.36	-156.76	-496.68	550.33	-183.81	-428.34	393.95	-113.64	-386.72	218.38	-100.29	-367.88	223.74	-41.241	-204.73	63.651	-35.965	-541.75	525.51	170.29	-360.7	77.178	5.786	-596.99	537.39	191.11	-518.84	630.61	-206.16	-381.62	310.32	-45.731	-753.44	206.96	120.65	-415.65	35.965	-27.429	-251.61	57.764	-10.36	-348.18	143.27	-38.296	-287.58	29.334	-88.97	-527.63	874.02	236.65	-575.13	716.19	-324.62	-377.85	57.992	-71.999	-671.42	379.78	139	-734.6	829.52	55.275	-737.26	822.52	-48	-638.55	904.78	-209.79	-476.49	800.79	175.74	-753.39	27.595	2.5187	-698.41	26.45	31.758	-903.28	88.705	43.792	-826.72	99.048	4.5471	-839.87	86.133	87.718	-773.98	17.073	95.46
336	1.68	-418.51	1408.3	-22.617	-429.34	1394.7	72.769	-546.4	1334.5	-56.826	-560.03	1324.1	75.301	-593.25	1246.7	10.61	-682.39	1048.6	21.103	-452.12	1160.3	3.1458	-401.4	1052.8	5.2601	-637.71	1122.1	129.64	-478.83	794.36	-153.94	-515.93	1185.5	187.05	-485.03	1043.3	264.27	-471.3	919.05	300.02	-375.72	828.73	286.31	-329.46	748.33	236.15	-353.93	729.77	301.33	-290.74	698.94	282.05	-542.73	1191.2	-180.08	-561.12	1035.7	-259.8	-612.55	928.9	-278.87	-580.69	832.25	-328.42	-616.73	730.24	-363.45	-587.71	676.14	-376.16	-563.96	615.79	212.94	-614.07	457.54	161.67	-667.32	264.62	84.614	-765.54	126.55	54.572	-719.41	196.35	69.309	-468.48	471.33	-152.72	-442.39	575.26	-156.22	-489.64	551.25	-183.52	-421.53	394.65	-113.6	-382.23	218.05	-100.1	-363.83	223.13	-40.876	-202.77	59.101	-34.567	-535.6	525.5	170.54	-359.07	76.374	6.1849	-590.82	537.42	191.39	-511.69	631.52	-205.99	-376.32	309.88	-45.47	-749.75	208.09	121.36	-414.73	36.557	-27.451	-250.17	54.426	-9.344	-345.29	142.38	-37.836	-286.58	27.361	-88.7	-523.04	874.15	235.88	-569.13	715.89	-325.39	-376.07	57.628	-71.769	-665.49	379.8	139.69	-728.48	829.22	55.27	-731.19	822.32	-48.06	-632.26	904.46	-210.42	-470.4	800.98	175.23	-753.05	27.975	2.7094	-698.48	26.397	31.63	-901.02	92.424	44.484	-824.46	101.18	5.3677	-837.96	88.352	88.448	-773.79	17.152	95.462
